HIERARCHY
ROOT joint_Root
{
	OFFSET 0.0 0.0 0.0
	CHANNELS 6 Xposition Yposition Zposition Zrotation Xrotation Yrotation 
	JOINT Hips
	{
		OFFSET 4.5925 91.4895 -427.239
		CHANNELS 6 Xposition Yposition Zposition Zrotation Xrotation Yrotation 
		JOINT Spine
		{
			OFFSET 15.7357 0.0 0.0
			CHANNELS 6 Xposition Yposition Zposition Zrotation Xrotation Yrotation 
			JOINT Chest
			{
				OFFSET 8.98455 -0.406207 0.0
				CHANNELS 6 Xposition Yposition Zposition Zrotation Xrotation Yrotation 
				JOINT Neck
				{
					OFFSET 16.3773 0.0 0.0
					CHANNELS 6 Xposition Yposition Zposition Zrotation Xrotation Yrotation 
					JOINT Head
					{
						OFFSET 6.45672 0.0 0.0
						CHANNELS 6 Xposition Yposition Zposition Zrotation Xrotation Yrotation 
						End Site
						{
							OFFSET 0.0 0.0 0.0
						}
					}
				}
				JOINT Shoulder_L
				{
					OFFSET 12.9942 -0.242716 4.98039
					CHANNELS 6 Xposition Yposition Zposition Zrotation Xrotation Yrotation 
					JOINT UpperArm_L
					{
						OFFSET 5.34809 0.0 0.0
						CHANNELS 6 Xposition Yposition Zposition Zrotation Xrotation Yrotation 
						JOINT LowerArm_L
						{
							OFFSET 24.3286 1.87007e-05 0.0
							CHANNELS 6 Xposition Yposition Zposition Zrotation Xrotation Yrotation 
							JOINT Hand_L
							{
								OFFSET 22.2916 0.0 0.0
								CHANNELS 6 Xposition Yposition Zposition Zrotation Xrotation Yrotation 
								End Site
								{
									OFFSET 0.0 0.0 0.0
								}
							}
						}
					}
				}
				JOINT Shoulder_R
				{
					OFFSET 12.9945 -0.242716 -4.98039
					CHANNELS 6 Xposition Yposition Zposition Zrotation Xrotation Yrotation 
					JOINT UpperArm_R
					{
						OFFSET -5.34813 0.0 0.0
						CHANNELS 6 Xposition Yposition Zposition Zrotation Xrotation Yrotation 
						JOINT LowerArm_R
						{
							OFFSET -24.3289 0.000322201 0.0
							CHANNELS 6 Xposition Yposition Zposition Zrotation Xrotation Yrotation 
							JOINT Hand_R
							{
								OFFSET -22.2915 -0.000108084 0.0
								CHANNELS 6 Xposition Yposition Zposition Zrotation Xrotation Yrotation 
								End Site
								{
									OFFSET 0.0 0.0 0.0
								}
							}
						}
					}
				}
			}
		}
		JOINT UpperLeg_L
		{
			OFFSET -2.19248 -6.46944 0.0
			CHANNELS 6 Xposition Yposition Zposition Zrotation Xrotation Yrotation 
			JOINT LowerLeg_L
			{
				OFFSET 39.0811 0.0 -1.23785e-05
				CHANNELS 6 Xposition Yposition Zposition Zrotation Xrotation Yrotation 
				JOINT Foot_L
				{
					OFFSET 40.9854 0.0 -1.26872e-05
					CHANNELS 6 Xposition Yposition Zposition Zrotation Xrotation Yrotation 
					JOINT Toes_L
					{
						OFFSET 11.7543 0.0 0.0
						CHANNELS 6 Xposition Yposition Zposition Zrotation Xrotation Yrotation 
						End Site
						{
							OFFSET 0.0 0.0 0.0
						}
					}
				}
			}
		}
		JOINT UpperLeg_R
		{
			OFFSET -2.19251 6.46944 0.0
			CHANNELS 6 Xposition Yposition Zposition Zrotation Xrotation Yrotation 
			JOINT LowerLeg_R
			{
				OFFSET -39.0811 -0.00228153 -0.0401928
				CHANNELS 6 Xposition Yposition Zposition Zrotation Xrotation Yrotation 
				JOINT Foot_R
				{
					OFFSET -40.9854 0.0 0.0
					CHANNELS 6 Xposition Yposition Zposition Zrotation Xrotation Yrotation 
					JOINT Toes_R
					{
						OFFSET -11.7543 0.0 0.0
						CHANNELS 6 Xposition Yposition Zposition Zrotation Xrotation Yrotation 
						End Site
						{
							OFFSET 0.0 0.0 0.0
						}
					}
				}
			}
		}
	}
}
MOTION
Frames:	4
Frame Time:	0.0333333
0.000000 0.000000 0.000000 0.000000 0.000000 -0.000000 -0.821606 90.780700 -1.858520 90.139800 -3.181120 14.566500 15.735700 0.000005 -0.000001 87.992200 77.769700 -88.437400 8.984550 -0.406207 -0.000000 16.677700 -0.877845 -0.763091 16.377300 -0.000001 -0.000001 9.939030 -4.746200 1.593050 6.456720 -0.000001 -0.000000 -0.814677 -5.294990 -0.115242 12.994200 -0.242716 4.980390 -91.621000 6.282580 -75.501100 5.348090 -0.000007 -0.000001 -57.311700 34.500000 -23.528600 24.328600 0.000019 0.000005 8.071030 20.069600 -22.451600 22.291600 -0.000001 0.000005 9.331620 5.271640 0.853735 12.994500 -0.242716 -4.980390 88.649900 11.122300 -83.034400 -5.348130 -0.000001 -0.000004 -60.022100 30.413000 -16.174700 -24.328900 0.000322 -0.000009 1.038960 2.628380 -21.597600 -22.291500 -0.000108 -0.000004 14.302300 5.425010 -3.769000 -2.192480 -6.469440 -0.000000 -173.522000 -14.834500 3.354190 39.081100 -0.000007 -0.000012 -0.165639 0.275309 31.033400 40.985400 -0.000006 -0.000013 0.413034 6.067570 -69.220000 11.754300 -0.000000 0.000003 -0.000164 -0.001564 -16.636900 -2.192510 6.469440 -0.000001 170.864000 23.370000 -174.912000 -39.081100 -0.002282 -0.040193 -0.196031 0.332150 30.969200 -40.985400 0.000008 0.000006 4.051280 15.105800 -70.500600 -11.754300 -0.000006 -0.000006 -0.002244 -0.031725 -17.863200
0.000000 0.000000 0.000000 0.000000 0.000000 -0.000000 -0.758744 90.793800 -2.073450 90.174500 -3.100650 14.587100 15.735700 0.000005 -0.000001 87.822200 77.683400 -88.284900 8.984550 -0.406207 -0.000000 16.847200 -0.957382 -0.784929 16.377300 -0.000001 -0.000001 10.055300 -4.825050 1.636360 6.456720 -0.000001 -0.000000 -0.458223 -5.289300 -0.215230 12.994200 -0.242716 4.980390 -91.666400 6.306490 -75.166300 5.348090 -0.000007 -0.000001 -57.840400 31.852500 -23.011900 24.328600 0.000019 0.000005 8.959890 20.826000 -23.915400 22.291600 -0.000001 0.000005 9.083160 5.283130 0.540248 12.994500 -0.242716 -4.980390 88.568600 11.116200 -82.615600 -5.348130 -0.000001 -0.000004 -60.202300 27.882000 -15.835000 -24.328900 0.000322 -0.000009 1.049750 2.520740 -22.638500 -22.291500 -0.000108 -0.000004 13.836900 5.427610 -3.857560 -2.192480 -6.469440 -0.000000 -173.653000 -14.824400 3.195770 39.081100 -0.000007 -0.000012 -0.158837 0.264000 31.033600 40.985400 -0.000006 -0.000013 0.486646 6.067640 -69.068600 11.754300 -0.000000 0.000003 -0.000151 -0.001461 -16.633100 -2.192510 6.469440 -0.000001 170.877000 23.324200 -175.089000 -39.081100 -0.002282 -0.040193 -0.193706 0.327802 31.005700 -40.985400 0.000008 0.000006 4.003010 14.985500 -70.345200 -11.754300 -0.000006 -0.000006 -0.002342 -0.032918 -17.911700
0.000000 0.000000 0.000000 0.000000 0.000000 -0.000000 -0.681650 90.806800 -2.270910 90.215500 -3.112710 14.543700 15.735700 0.000005 -0.000001 87.767900 77.635700 -88.235000 8.984550 -0.406207 -0.000000 16.941600 -0.984551 -0.788982 16.377300 -0.000001 -0.000001 10.253500 -4.840620 1.615390 6.456720 -0.000001 -0.000000 -0.111107 -5.286000 -0.353132 12.994200 -0.242716 4.980390 -91.742900 6.329850 -74.571000 5.348090 -0.000007 -0.000001 -58.089800 28.842800 -22.629700 24.328600 0.000019 0.000005 10.060200 21.552300 -25.777200 22.291600 -0.000001 0.000005 8.201430 5.287660 0.414550 12.994500 -0.242716 -4.980390 88.473000 10.987600 -82.037800 -5.348130 -0.000001 -0.000004 -60.315500 24.552700 -15.455800 -24.328900 0.000322 -0.000009 1.016330 2.295710 -23.911900 -22.291500 -0.000108 -0.000004 13.541200 5.436490 -4.163630 -2.192480 -6.469440 -0.000000 -173.780000 -14.907800 3.004390 39.081100 -0.000007 -0.000012 -0.154843 0.257472 31.022800 40.985400 -0.000006 -0.000013 0.570266 6.091240 -68.930600 11.754300 -0.000000 0.000003 -0.000148 -0.001433 -16.632100 -2.192510 6.469440 -0.000001 170.935000 23.166600 -175.349000 -39.081100 -0.002282 -0.040193 -0.193992 0.327803 31.042300 -40.985400 0.000008 0.000006 3.934990 14.846900 -70.189000 -11.754300 -0.000006 -0.000006 -0.002416 -0.033803 -17.947700
0.000000 0.000000 0.000000 0.000000 0.000000 -0.000000 -0.595777 90.825200 -2.451420 90.245900 -3.176920 14.519400 15.735700 0.000005 -0.000001 87.738100 77.623800 -88.206300 8.984550 -0.406207 -0.000000 16.964900 -0.998289 -0.789085 16.377300 -0.000001 -0.000001 10.702200 -4.825430 1.595560 6.456720 -0.000001 -0.000000 0.254547 -5.203020 -0.561665 12.994200 -0.242716 4.980390 -91.792100 6.251360 -73.968800 5.348090 -0.000007 -0.000001 -58.167100 25.204900 -22.125300 24.328600 0.000019 0.000005 11.674400 22.747700 -28.117300 22.291600 -0.000001 0.000005 6.925730 5.291350 0.312832 12.994500 -0.242716 -4.980390 88.396000 10.770100 -81.477300 -5.348130 -0.000001 -0.000004 -60.160900 20.511000 -15.048700 -24.328900 0.000322 -0.000009 0.649145 1.369150 -25.411500 -22.291500 -0.000108 -0.000004 13.867300 5.440890 -4.317650 -2.192480 -6.469440 -0.000000 -173.895000 -14.994200 2.866790 39.081100 -0.000007 -0.000012 -0.150279 0.250315 30.979200 40.985400 -0.000006 -0.000013 0.637631 6.052210 -68.791400 11.754300 -0.000000 0.000003 -0.000155 -0.001497 -16.634400 -2.192510 6.469440 -0.000001 170.967000 23.063800 -175.549000 -39.081100 -0.002282 -0.040193 -0.191759 0.324178 31.035700 -40.985400 0.000008 0.000006 3.886810 14.800300 -70.024600 -11.754300 -0.000006 -0.000006 -0.002413 -0.033770 -17.946300
